<?xml version="1.0" encoding="UTF-8"?>
<svg xmlns="http://www.w3.org/2000/svg" style="stroke-dasharray:none; shape-rendering:auto; font-family:'Arial'; text-rendering:auto; fill-opacity:1; color-interpolation:auto; color-rendering:auto; font-size:12; fill:black; stroke:black; image-rendering:auto; stroke-miterlimit:10; stroke-linecap:square; stroke-linejoin:miter; font-style:normal; stroke-width:1; stroke-dashoffset:0; font-weight:normal; stroke-opacity:1;" contentScriptType="text/ecmascript" preserveAspectRatio="xMidYMid meet" zoomAndPan="magnify" version="1.0" contentStyleType="text/css" xml:xlink="http://www.w3.org/1999/xlink" width="951" height="487"><rect x="10" y="10" width="941" height="477" ry="0" rx="0" style="stroke:#000000; fill:#C0C0C0" /><rect x="40" y="328" width="911" height="159" ry="0" rx="0" style="stroke:#000000; fill:#FFFFFF" /><g componentSequence="21"><text x="-407" y="47" transform="rotate(270)" text-anchor="middle" style="font-weight:bold;font-size:10px;stroke:none; fill:#434343"><tspan dy="14" x="-407">Financeiro</tspan></text></g><rect x="40" y="169" width="911" height="159" ry="0" rx="0" style="stroke:#000000; fill:#FFFFFF" /><g componentSequence="3"><text x="-248" y="47" transform="rotate(270)" text-anchor="middle" style="font-weight:bold;font-size:10px;stroke:none; fill:#434343"><tspan dy="14" x="-248">Gestor</tspan></text></g><rect x="40" y="10" width="911" height="159" ry="0" rx="0" style="stroke:#000000; fill:#FFFFFF" /><g componentSequence="2"><text x="-89" y="47" transform="rotate(270)" text-anchor="middle" style="font-weight:bold;font-size:10px;stroke:none; fill:#434343"><tspan dy="14" x="-89">Solicitante</tspan></text></g><g componentSequence="1"><text x="-248" y="17" transform="rotate(270)" text-anchor="middle" style="font-weight:bold;font-size:10px;stroke:none; fill:#434343"><tspan dy="14" x="-248">Solicitação de Despesas</tspan></text></g><g sequence="4"><ellipse cx="167" cy="99" rx="17" ry="17" stroke-width="1" style="fill:url(#linearGradient66FF6696FF96B6FFB6_107200581);" stroke="336633" /></g><g sequence="5"><rect x="114" y="223" width="106" height="56" ry="5" rx="5" style="fill:url(#linearGradientF8FBFEEDF5FCDEEDFAD4E7F8E2E5E9_144977657);" stroke="191970" /></g><g componentSequence="5"><text x="167" y="240" text-anchor="middle" style="font-weight:bold;font-size:10px;stroke:none; fill:#333399"><tspan dy="14" x="167">Gestor</tspan></text></g><g sequence="9"><polygon points=" 280 230 310 200 340 230 310 260 280 230" style="fill:url(#linearGradientFAFBFCFFFFCC_211528501);" stroke="000000" /></g><g componentSequence="9"><text x="310" y="270" text-anchor="middle" style="font-weight:bold;font-size:10px;stroke:none; fill:#333399"><tspan dy="14" x="310">Aprovad</tspan><tspan dy="14" x="310">o?</tspan></text></g><g sequence="11"><rect x="257" y="370" width="106" height="56" ry="5" rx="5" style="fill:url(#linearGradientF8FBFEEDF5FCDEEDFAD4E7F8E2E5E9_1234773186);" stroke="191970" /></g><g componentSequence="11"><text x="310" y="387" text-anchor="middle" style="font-weight:bold;font-size:10px;stroke:none; fill:#333399"><tspan dy="14" x="310">Financeiro</tspan></text></g><g sequence="13"><ellipse cx="417" cy="250" rx="17" ry="17" stroke-width="3" style="fill:url(#linearGradientFF6666FF9696FFB6B6_1365288028);" stroke="993333" /></g><g sequence="15"><polygon points=" 420 376 450 346 480 376 450 406 420 376" style="fill:url(#linearGradientFAFBFCFFFFCC_2023394159);" stroke="000000" /></g><g componentSequence="15"><text x="450" y="416" text-anchor="middle" style="font-weight:bold;font-size:10px;stroke:none; fill:#333399"><tspan dy="14" x="450">Aprovad</tspan><tspan dy="14" x="450">o</tspan></text></g><g sequence="17"><ellipse cx="597" cy="367" rx="17" ry="17" stroke-width="3" style="fill:url(#linearGradientFF6666FF9696FFB6B6_696866122);" stroke="993333" /></g><g sequence="19"><ellipse cx="597" cy="457" rx="17" ry="17" stroke-width="3" style="fill:url(#linearGradientFF6666FF9696FFB6B6_699849613);" stroke="993333" /></g><rect x="500" y="223" width="105" height="55" ry="5" rx="5" style="stroke:none; fill:#FFFFE0" /><g componentSequence="23"><text x="510" y="236" text-anchor="left" style="font-weight:bold;font-size:10px;stroke:none; fill:#000000"><tspan dy="14" x="510">Reprovado</tspan></text></g><path style="fill:none; stroke-width:1; stroke:#000000;" d="M520.0 223.0 L500.0 223.0 L500.0 278.0 L520.0 278.0" /><rect x="660" y="340" width="105" height="55" ry="5" rx="5" style="stroke:none; fill:#FFFFE0" /><g componentSequence="25"><text x="670" y="353" text-anchor="left" style="font-weight:bold;font-size:10px;stroke:none; fill:#000000"><tspan dy="14" x="670">Reprovado</tspan></text></g><path style="fill:none; stroke-width:1; stroke:#000000;" d="M680.0 340.0 L660.0 340.0 L660.0 395.0 L680.0 395.0" /><rect x="660" y="430" width="105" height="55" ry="5" rx="5" style="stroke:none; fill:#FFFFE0" /><g componentSequence="26"><text x="670" y="443" text-anchor="left" style="font-weight:bold;font-size:10px;stroke:none; fill:#000000"><tspan dy="14" x="670">Aprovado</tspan></text></g><path style="fill:none; stroke-width:1; stroke:#000000;" d="M680.0 430.0 L660.0 430.0 L660.0 485.0 L680.0 485.0" /><g componentSequence="10"><text x="260" y="251" style="font-size:10px;font-weight:none;stroke:none; fill:#333399" text-anchor="left" /></g><g componentSequence="12"><text x="320" y="336" style="font-size:10px;font-weight:none;stroke:none; fill:#333399" text-anchor="left" /></g><g componentSequence="14"><text x="380" y="250" style="font-size:10px;font-weight:none;stroke:none; fill:#333399" text-anchor="left" /></g><g componentSequence="16"><text x="401" y="397" style="font-size:10px;font-weight:none;stroke:none; fill:#333399" text-anchor="left" /></g><g componentSequence="18"><text x="540" y="381" style="font-size:10px;font-weight:none;stroke:none; fill:#333399" text-anchor="left" /></g><g componentSequence="20"><text x="540" y="430" style="font-size:10px;font-weight:none;stroke:none; fill:#333399" text-anchor="left" /></g><g componentSequence="22"><text x="177" y="170" style="font-size:10px;font-weight:none;stroke:none; fill:#333399" text-anchor="left" /></g><g componentSequence="24"><text x="477" y="250" style="font-size:10px;font-weight:none;stroke:none; fill:#333399" text-anchor="left" /></g><g componentSequence="27"><text x="647" y="367" style="font-size:10px;font-weight:none;stroke:none; fill:#333399" text-anchor="left" /></g><g componentSequence="28"><text x="647" y="457" style="font-size:10px;font-weight:none;stroke:none; fill:#333399" text-anchor="left" /></g><path style="fill:none; stroke:#000000;stroke-width:1" d="M167.0 117.0 L167.0 222.0" /><polygon style="fill:#000000; stroke:#000000;" points=" 172 212 167 222 162 212 167 214" /><path style="fill:none; stroke:#000000;stroke-width:1" d="M220.0 251.0 L279.0 251.0" /><polygon style="fill:#000000; stroke:#000000;" points=" 269 246 279 251 269 256 271 251" /><path style="fill:none; stroke:#000000;stroke-width:1" d="M310.0 302.0 L310.0 369.0" /><polygon style="fill:#000000; stroke:#000000;" points=" 315 359 310 369 305 359 310 361" /><path style="fill:none; stroke:#000000;stroke-width:1" d="M340.0 250.0 L400.0 250.0" /><polygon style="fill:#000000; stroke:#000000;" points=" 390 245 400 250 390 255 392 250" /><path style="fill:none; stroke:#000000;stroke-width:1" d="M363.0 397.0 L419.0 397.0" /><polygon style="fill:#000000; stroke:#000000;" points=" 409 392 419 397 409 402 411 397" /><path style="fill:none; stroke:#000000;stroke-dasharray:2" d="M499.0 250.0 L435.0 250.0" /><path style="fill:none; stroke:#000000;stroke-width:1" d="M480.0 390.0 L580.0 370.0" /><polygon style="fill:#000000; stroke:#000000;" points=" 569 367 580 370 571 377 572 372" /><path style="fill:none; stroke:#000000;stroke-width:1" d="M480.0 409.0 L581.0 451.0" /><polygon style="fill:#000000; stroke:#000000;" points=" 574 443 581 451 570 452 574 448" /><path style="fill:none; stroke:#000000;stroke-dasharray:2" d="M659.0 367.0 L615.0 367.0" /><path style="fill:none; stroke:#000000;stroke-dasharray:2" d="M659.0 457.0 L615.0 457.0" /><defs><linearGradient xmlns:xlink="http://www.w3.org/1999/xlink" xlink:href="#linearGradient66FF6696FF96B6FFB6" id="linearGradient66FF6696FF96B6FFB6_107200581" x1="0" y1="82.0" x2="0" y2="117.0" gradientUnits="userSpaceOnUse" xlink:type="simple" xlink:actuate="onLoad" xlink:show="other" /><linearGradient id="linearGradient66FF6696FF96B6FFB6"><stop style="stop-color:#66FF66;stop-opacity:1;" offset="0.0" id="stop66FF66" /><stop style="stop-color:#96FF96;stop-opacity:1;" offset="0.5" id="stop96FF96" /><stop style="stop-color:#B6FFB6;stop-opacity:1;" offset="1.0" id="stopB6FFB6" /></linearGradient><linearGradient xmlns:xlink="http://www.w3.org/1999/xlink" xlink:href="#linearGradientF8FBFEEDF5FCDEEDFAD4E7F8E2E5E9" id="linearGradientF8FBFEEDF5FCDEEDFAD4E7F8E2E5E9_144977657" x1="0" y1="223.0" x2="0" y2="329.0" gradientUnits="userSpaceOnUse" xlink:type="simple" xlink:actuate="onLoad" xlink:show="other" /><linearGradient id="linearGradientF8FBFEEDF5FCDEEDFAD4E7F8E2E5E9"><stop style="stop-color:#F8FBFE;stop-opacity:1;" offset="0.0" id="stopF8FBFE" /><stop style="stop-color:#EDF5FC;stop-opacity:1;" offset="0.25" id="stopEDF5FC" /><stop style="stop-color:#DEEDFA;stop-opacity:1;" offset="0.5" id="stopDEEDFA" /><stop style="stop-color:#D4E7F8;stop-opacity:1;" offset="0.75" id="stopD4E7F8" /><stop style="stop-color:#E2E5E9;stop-opacity:1;" offset="1.0" id="stopE2E5E9" /></linearGradient><linearGradient xmlns:xlink="http://www.w3.org/1999/xlink" xlink:href="#linearGradientFAFBFCFFFFCC" id="linearGradientFAFBFCFFFFCC_211528501" x1="0" y1="200.0" x2="0" y2="260.0" gradientUnits="userSpaceOnUse" xlink:type="simple" xlink:actuate="onLoad" xlink:show="other" /><linearGradient id="linearGradientFAFBFCFFFFCC"><stop style="stop-color:#FAFBFC;stop-opacity:1;" offset="0.0" id="stopFAFBFC" /><stop style="stop-color:#FFFFCC;stop-opacity:1;" offset="1.0" id="stopFFFFCC" /></linearGradient><linearGradient xmlns:xlink="http://www.w3.org/1999/xlink" xlink:href="#linearGradientF8FBFEEDF5FCDEEDFAD4E7F8E2E5E9" id="linearGradientF8FBFEEDF5FCDEEDFAD4E7F8E2E5E9_1234773186" x1="0" y1="370.0" x2="0" y2="476.0" gradientUnits="userSpaceOnUse" xlink:type="simple" xlink:actuate="onLoad" xlink:show="other" /><linearGradient xmlns:xlink="http://www.w3.org/1999/xlink" xlink:href="#linearGradientFF6666FF9696FFB6B6" id="linearGradientFF6666FF9696FFB6B6_1365288028" x1="0" y1="233.0" x2="0" y2="268.0" gradientUnits="userSpaceOnUse" xlink:type="simple" xlink:actuate="onLoad" xlink:show="other" /><linearGradient id="linearGradientFF6666FF9696FFB6B6"><stop style="stop-color:#FF6666;stop-opacity:1;" offset="0.0" id="stopFF6666" /><stop style="stop-color:#FF9696;stop-opacity:1;" offset="0.5" id="stopFF9696" /><stop style="stop-color:#FFB6B6;stop-opacity:1;" offset="1.0" id="stopFFB6B6" /></linearGradient><linearGradient xmlns:xlink="http://www.w3.org/1999/xlink" xlink:href="#linearGradientFAFBFCFFFFCC" id="linearGradientFAFBFCFFFFCC_2023394159" x1="0" y1="346.0" x2="0" y2="406.0" gradientUnits="userSpaceOnUse" xlink:type="simple" xlink:actuate="onLoad" xlink:show="other" /><linearGradient xmlns:xlink="http://www.w3.org/1999/xlink" xlink:href="#linearGradientFF6666FF9696FFB6B6" id="linearGradientFF6666FF9696FFB6B6_696866122" x1="0" y1="350.0" x2="0" y2="385.0" gradientUnits="userSpaceOnUse" xlink:type="simple" xlink:actuate="onLoad" xlink:show="other" /><linearGradient xmlns:xlink="http://www.w3.org/1999/xlink" xlink:href="#linearGradientFF6666FF9696FFB6B6" id="linearGradientFF6666FF9696FFB6B6_699849613" x1="0" y1="440.0" x2="0" y2="475.0" gradientUnits="userSpaceOnUse" xlink:type="simple" xlink:actuate="onLoad" xlink:show="other" /></defs></svg>
